<?xml version="1.0" standalone="no"?>
<!DOCTYPE svg PUBLIC "-//W3C//DTD SVG 20010904//EN"
 "http://www.w3.org/TR/2001/REC-SVG-20010904/DTD/svg10.dtd">
<svg version="1.0" xmlns="http://www.w3.org/2000/svg"
 width="339.000000pt" height="339.000000pt" viewBox="0 0 339.000000 339.000000"
 preserveAspectRatio="xMidYMid meet">
<metadata>
Created by potrace 1.11, written by Peter Selinger 2001-2013
</metadata>
<g transform="translate(0.000000,339.000000) scale(0.100000,-0.100000)"
fill="#000000" stroke="none">
<path d="M3310 2733 c-681 -262 -1114 -463 -1655 -768 -220 -124 -623 -385
-836 -540 -134 -98 -415 -317 -434 -339 -5 -6 -30 -27 -55 -47 -25 -20 -57
-47 -71 -60 -14 -13 -52 -48 -85 -78 -32 -29 -85 -78 -116 -108 l-57 -54 30
-49 31 -50 381 0 382 1 106 102 c197 191 357 332 574 508 490 398 1085 779
1708 1093 l177 90 0 163 c0 90 -3 163 -7 162 -5 0 -37 -12 -73 -26z"/>
<path d="M210 2502 l-105 -3 -19 -41 -19 -41 24 -18 c13 -10 38 -25 54 -33 17
-8 36 -24 43 -35 7 -12 17 -21 23 -21 5 0 15 -5 22 -10 7 -6 37 -29 67 -51 30
-22 70 -52 89 -67 18 -15 37 -26 42 -25 5 2 9 -1 9 -5 0 -12 86 -72 94 -67 3
3 4 2 1 -2 -5 -6 24 -31 35 -30 3 0 20 -14 39 -31 19 -17 38 -29 43 -26 4 3 8
1 8 -3 0 -8 127 -107 142 -112 4 -1 19 -12 33 -25 14 -13 44 -36 67 -52 24
-16 45 -32 46 -36 2 -5 10 -8 17 -8 7 0 15 -5 17 -11 3 -10 146 66 160 86 4 5
8 6 8 2 0 -9 93 43 98 55 2 5 7 6 12 3 5 -3 16 2 24 11 9 8 16 13 16 10 0 -5
231 112 244 124 4 4 -1 13 -12 19 -11 6 -26 17 -34 24 -30 28 -219 168 -212
155 5 -7 -9 4 -29 25 -22 21 -43 35 -50 31 -7 -4 -9 -4 -5 1 6 7 -94 89 -119
98 -8 2 -26 17 -88 72 -39 34 -42 35 -130 35 -49 1 -193 2 -320 3 -126 1 -277
1 -335 -1z"/>
<path d="M2145 1577 c-8 -12 -15 -17 -15 -12 0 4 -10 -1 -22 -12 -13 -11 -62
-50 -110 -85 -48 -36 -84 -68 -81 -72 4 -3 -1 -6 -10 -6 -9 0 -21 -8 -26 -17
-6 -10 -11 -13 -11 -8 0 6 -3 6 -8 0 -4 -6 -37 -34 -74 -64 -38 -29 -68 -57
-68 -62 0 -6 -6 -7 -12 -3 -7 4 -3 -3 9 -15 12 -11 27 -21 33 -21 5 0 10 -4
10 -10 0 -5 5 -10 10 -10 6 0 20 -9 32 -20 12 -11 28 -20 35 -20 8 0 11 -4 8
-10 -3 -5 1 -10 9 -10 9 0 16 -5 16 -11 0 -5 5 -7 10 -4 6 3 10 2 10 -3 0 -5
20 -23 45 -41 25 -18 45 -30 45 -28 0 3 17 -10 37 -29 20 -19 39 -32 41 -29 3
3 12 -4 19 -15 8 -11 19 -18 24 -15 5 4 9 1 9 -4 0 -6 19 -23 43 -37 23 -15
44 -31 45 -35 2 -5 8 -9 13 -9 5 0 19 -9 31 -20 13 -10 26 -19 31 -20 4 0 15
-8 26 -17 27 -25 62 -52 94 -71 15 -9 27 -20 27 -24 0 -4 6 -8 14 -8 8 0 16
-4 18 -8 2 -4 17 -18 35 -30 31 -22 34 -22 448 -22 l416 0 15 35 c7 19 14 36
14 39 0 5 -281 213 -292 216 -4 0 -24 17 -44 35 -21 19 -39 33 -41 31 -2 -2
-21 11 -41 30 -20 19 -40 34 -44 34 -7 0 -27 15 -62 45 -6 6 -20 17 -30 25
-18 13 -19 13 -12 0 4 -8 -1 -6 -11 6 -10 11 -34 31 -53 44 -19 13 -37 27 -40
30 -18 19 -79 58 -84 53 -3 -4 -6 -2 -6 4 0 12 -120 99 -132 95 -5 -1 -7 1 -4
6 3 5 -13 19 -34 33 -22 13 -40 27 -40 32 0 4 -4 7 -10 7 -5 0 -21 10 -36 23
-14 12 -27 21 -30 20 -2 -2 -21 13 -41 32 -20 19 -40 35 -44 35 -3 0 -19 10
-35 22 -37 30 -51 31 -69 5z"/>
</g>
</svg>
